<svg xmlns="http://www.w3.org/2000/svg" width="231" height="164" viewBox="0 0 231 164"><rect width="100%" height="100%" fill="#DDDDDD"/><path fill="#999999" d="M54.3 89.645h5.75q.62 0 .99.34.36.35.36.93v2.29H46.02v-1.27q0-.39.17-.81.16-.43.52-.77l6.8-6.82q.85-.87 1.53-1.66.67-.79 1.12-1.57.45-.77.69-1.57.24-.8.24-1.68 0-.81-.23-1.42-.23-.61-.66-1.03-.43-.42-1.02-.63-.6-.21-1.34-.21-.69 0-1.27.2-.58.19-1.03.54-.45.35-.76.81-.31.47-.46 1.03-.27.71-.68.94-.42.23-1.21.11l-2.02-.36q.23-1.61.9-2.83.67-1.21 1.67-2.03 1-.81 2.29-1.22 1.3-.41 2.78-.41 1.55 0 2.84.46 1.29.45 2.2 1.29.92.84 1.43 2.02.51 1.17.51 2.62 0 1.23-.37 2.29-.36 1.05-.97 2.01-.61.96-1.44 1.86-.82.9-1.72 1.83l-5.05 5.16q.73-.21 1.45-.33.72-.11 1.37-.11Zm12.22-12.25-2.02-.36q.23-1.61.9-2.83.67-1.21 1.67-2.03 1-.81 2.29-1.22 1.29-.41 2.78-.41 1.55 0 2.8.44 1.25.44 2.13 1.23.88.78 1.36 1.83.47 1.06.47 2.28 0 1.07-.24 1.88-.24.82-.69 1.42-.45.61-1.12 1.03-.66.41-1.5.69 2.02.64 3.01 1.94.99 1.3.99 3.27 0 1.67-.62 2.96t-1.67 2.16q-1.06.88-2.45 1.33-1.38.45-2.93.45-1.69 0-2.95-.39-1.25-.39-2.18-1.15-.93-.76-1.58-1.86-.66-1.1-1.12-2.54l1.69-.7q.67-.28 1.25-.14.58.13.84.62.28.55.61 1.07.34.53.8.94.47.41 1.1.67.62.25 1.49.25.98 0 1.71-.31.72-.32 1.21-.83t.73-1.14q.24-.63.24-1.27 0-.8-.17-1.46-.17-.66-.71-1.12-.54-.47-1.56-.73-1.02-.27-2.72-.27v-2.72q1.41-.02 2.34-.27.93-.25 1.48-.69.55-.44.77-1.06.21-.62.21-1.36 0-1.58-.88-2.41-.88-.82-2.35-.82-.69 0-1.26.2-.57.19-1.03.54-.46.35-.77.81-.31.47-.46 1.03-.27.71-.69.94-.43.23-1.2.11Zm26.3 12.94h4.03v2.87h-12.4v-2.87h4.54v-13.06q0-.78.05-1.6l-3.23 2.7q-.28.21-.55.27-.27.05-.51.01-.24-.05-.42-.17-.19-.11-.28-.25l-1.21-1.66 6.83-5.81h3.15v19.57Zm29.81-2.26-2.03 2-5.26-5.26-5.3 5.29-2.03-2 5.3-5.32-5.05-5.05 2.01-2.01 5.06 5.05 5.02-5.02 2.04 2.01-5.03 5.04 5.27 5.27Zm21.22 2.26h4.03v2.87h-12.4v-2.87h4.54v-13.06q0-.78.04-1.6l-3.22 2.7q-.28.21-.55.27-.27.05-.51.01-.24-.05-.43-.17-.18-.11-.28-.25l-1.21-1.66 6.84-5.81h3.15v19.57Zm20.7-19.54-6.65 8.13-.77.97q.65-.33 1.4-.51.75-.18 1.62-.18 1.27 0 2.47.42 1.21.42 2.12 1.27.91.84 1.47 2.1.56 1.25.56 2.92 0 1.57-.57 2.94-.58 1.37-1.62 2.4-1.03 1.02-2.5 1.61-1.46.59-3.23.59-1.8 0-3.22-.58-1.43-.57-2.44-1.6-1.01-1.03-1.54-2.48-.54-1.45-.54-3.22 0-1.58.65-3.24.64-1.67 1.99-3.47l5.35-7.17q.28-.38.81-.64.54-.26 1.23-.26h3.41Zm-5.78 19.53q.92 0 1.68-.31.77-.31 1.32-.87t.86-1.31q.31-.75.31-1.64 0-.96-.29-1.72-.3-.77-.84-1.31-.54-.53-1.3-.81t-1.68-.28q-.91 0-1.65.31-.75.31-1.28.86-.52.55-.82 1.3-.29.75-.29 1.62 0 .93.25 1.7.26.77.76 1.31.51.54 1.25.84.75.31 1.72.31Zm13.24-5.57h6.82v-7.33q0-1.04.14-2.29l-6.96 9.62Zm10.15 0h2.82v2.22q0 .31-.2.53-.2.23-.57.23h-2.05v5.47h-3.33v-5.47h-9.46q-.38 0-.68-.24-.29-.24-.37-.6l-.4-1.94 10.61-14.18h3.63v13.98Z"/></svg>